HIERARCHY
ROOT Hips
{
	OFFSET -3.958830 18.904000 13.208200
	CHANNELS 6 Xposition Yposition Zposition Zrotation Yrotation Xrotation 
	JOINT LHipJoint
	{
		OFFSET 0.000000 0.000000 0.000000
		CHANNELS 3 Zrotation Yrotation Xrotation
		JOINT LeftUpLeg
		{
			OFFSET 1.800000 -1.400000 0.085000
			CHANNELS 3 Zrotation Yrotation Xrotation
			JOINT LeftLeg
			{
				OFFSET 2.215000 -6.000000 0.000000
				CHANNELS 3 Zrotation Yrotation Xrotation
				JOINT LeftFoot
				{
					OFFSET 2.500000 -6.900000 0.000000
					CHANNELS 3 Zrotation Yrotation Xrotation
					JOINT LeftToeBase
					{
						OFFSET 0.200000 -0.500000 1.950000
						CHANNELS 3 Zrotation Yrotation Xrotation
						End Site
						{
							OFFSET 0.000000 0.000000 0.000000
						}
					}
				}
			}
		}
	}
	JOINT RHipJoint
	{
		OFFSET 0.000000 0.000000 0.000000
		CHANNELS 3 Zrotation Yrotation Xrotation
		JOINT RightUpLeg
		{
			OFFSET -1.800000 -1.400000 0.085000
			CHANNELS 3 Zrotation Yrotation Xrotation
			JOINT RightLeg
			{
				OFFSET -2.215000 -6.000000 0.000000
				CHANNELS 3 Zrotation Yrotation Xrotation
				JOINT RightFoot
				{
					OFFSET -2.500000 -6.900000 0.000000
					CHANNELS 3 Zrotation Yrotation Xrotation
					JOINT RightToeBase
					{
						OFFSET -0.200000 -0.500000 1.950000
						CHANNELS 3 Zrotation Yrotation Xrotation
						End Site
						{
							OFFSET 0.000000 0.000000 0.000000
						}
					}
				}
			}
		}
	}
	JOINT LowerBack
	{
		OFFSET 0.000000 0.000000 0.000000
		CHANNELS 3 Zrotation Yrotation Xrotation
		JOINT Spine
		{
			OFFSET -0.087000 1.940000 -0.288900
			CHANNELS 3 Zrotation Yrotation Xrotation
			JOINT Spine1
			{
				OFFSET 0.000000 1.950000 0.060000
				CHANNELS 3 Zrotation Yrotation Xrotation
				JOINT Neck
				{
					OFFSET 0.000000 0.000000 0.000000
					CHANNELS 3 Zrotation Yrotation Xrotation
					JOINT Neck1
					{
						OFFSET 0.000000 1.600000 0.340000
						CHANNELS 3 Zrotation Yrotation Xrotation
						JOINT Head
						{
							OFFSET 0.000000 1.667000 -0.240000
							CHANNELS 3 Zrotation Yrotation Xrotation
							End Site
							{
								OFFSET 0.000000 0.000000 0.000000
							}
						}
					}
				}
				JOINT LeftShoulder
				{
					OFFSET 0.000000 0.000000 0.000000
					CHANNELS 3 Zrotation Yrotation Xrotation
					JOINT LeftArm
					{
						OFFSET 2.700000 1.550000 -0.730000
						CHANNELS 3 Zrotation Yrotation Xrotation
						JOINT LeftForeArm
						{
							OFFSET 5.450000 0.000000 0.000000
							CHANNELS 3 Zrotation Yrotation Xrotation
							JOINT LeftHand
							{
								OFFSET 3.450000 0.000000 0.000000
								CHANNELS 3 Zrotation Yrotation Xrotation
								JOINT LeftHandIndex1
								{
									OFFSET 0.750000 0.000000 0.000000
									CHANNELS 3 Zrotation Yrotation Xrotation
									End Site
									{
										OFFSET 0.000000 0.000000 0.000000
									}
								}
							}
						}
					}
				}
				JOINT RightShoulder
				{
					OFFSET 0.000000 0.000000 0.000000
					CHANNELS 3 Zrotation Yrotation Xrotation
					JOINT RightArm
					{
						OFFSET -2.700000 1.550000 -0.730000
						CHANNELS 3 Zrotation Yrotation Xrotation
						JOINT RightForeArm
						{
							OFFSET -5.450000 0.000000 0.000000
							CHANNELS 3 Zrotation Yrotation Xrotation
							JOINT RightHand
							{
								OFFSET -3.450000 0.000000 0.000000
								CHANNELS 3 Zrotation Yrotation Xrotation
								JOINT RightHandIndex1
								{
									OFFSET -0.750000 0.000000 0.000000
									CHANNELS 3 Zrotation Yrotation Xrotation
									End Site
									{
										OFFSET 0.000000 0.000000 0.000000
									}
								}
							}
						}
					}
				}
			}
		}
	}
}
MOTION
Frames: 6
Frame Time: 0.016667
0.592530 17.168190 -1.460260 -8.243225 -10.685279 17.530061 -15.088572 12.910441 4.009734 -2.899739 -2.721358 -16.104995 -8.347789 2.427970 -6.151932 -0.293856 2.811782 3.707671 0.164250 -0.011890 0.112840 18.217435 -10.720629 3.220162 -6.691600 -1.514426 7.379291 6.770347 -5.357741 3.349484 -0.735097 -4.674030 2.939816 -0.021590 0.108320 0.093270 -3.448132 -1.847185 -8.695123 12.047221 4.349807 -1.370031 -1.429312 4.933379 -12.194541 3.540638 -2.937804 -16.143375 -10.494873 5.788763 55.621436 -0.709570 2.527470 -1.699370 -16.369742 -11.944302 4.028367 -0.156542 -2.969273 0.121173 10.767790 -8.904590 -0.426397 -3.905170 2.554052 0.450240 0.013610 0.087430 0.111840 10.420050 17.506946 10.740655 2.540526 5.754856 -0.877867 -9.368327 3.622818 0.122749 2.631085 -0.948965 -0.137720 0.208410 0.038680 -0.149610 
0.592980 17.164670 -1.469350 -7.991800 -10.836697 17.498803 -15.109252 12.858269 4.003610 -3.162256 -2.759538 -16.057964 -8.366395 2.410028 -6.211739 -0.295169 2.804324 3.711854 0.161930 -0.014310 0.111810 18.204003 -10.725778 3.233317 -6.904486 -1.468096 7.529191 6.825399 -5.338289 2.930665 -0.741666 -4.706077 2.930261 -0.021730 0.111250 0.094430 -3.394270 -1.746017 -8.696802 11.287350 4.449839 -1.417737 -1.119165 4.912507 -12.001876 3.526181 -2.854247 -16.147174 -10.220992 5.670203 55.445489 -0.753540 2.574230 -1.679070 -16.212943 -12.021269 4.082816 -0.156840 -3.004890 0.112490 10.909939 -8.822981 -0.433656 -3.911079 2.552854 0.448270 0.017350 0.085430 0.111840 10.377793 17.487395 10.746028 2.407482 5.704384 -0.864982 -9.270319 3.666442 0.121361 2.629029 -0.949298 -0.139310 0.208150 0.039320 -0.149800 
0.593720 17.160640 -1.478900 -7.762419 -10.972743 17.435611 -15.128553 12.809776 3.996117 -3.403936 -2.790697 -15.990238 -8.366265 2.394736 -6.261939 -0.296233 2.798359 3.715668 0.160420 -0.017120 0.112750 18.191975 -10.730266 3.244945 -7.099683 -1.424911 7.668149 6.882678 -5.323524 2.556839 -0.747662 -4.736956 2.921611 -0.022500 0.113570 0.095650 -3.344891 -1.652077 -8.695682 10.591626 4.541851 -1.434479 -0.849427 4.897621 -11.757017 3.520351 -2.753011 -16.154402 -9.906118 5.527118 55.233517 -0.825000 2.627070 -1.662830 -16.057413 -12.116232 4.140282 -0.129912 -3.037036 0.102722 11.025010 -8.761812 -0.439953 -3.917080 2.552228 0.446070 0.021070 0.082970 0.111510 10.307210 17.476255 10.765270 2.333107 5.643241 -0.855273 -9.235572 3.687118 0.118948 2.626986 -0.950914 -0.140440 0.207470 0.039680 -0.150890 
0.595230 17.156940 -1.488540 -7.566340 -11.088960 17.348485 -15.145607 12.768211 3.988762 -3.628848 -2.815542 -15.912816 -8.335976 2.380332 -6.302838 -0.296220 2.790883 3.718871 0.160160 -0.017570 0.114830 18.181585 -10.733838 3.255089 -7.259306 -1.388630 7.795213 6.928019 -5.310259 2.243449 -0.753464 -4.764154 2.912471 -0.022360 0.114120 0.097220 -3.301739 -1.571269 -8.693511 9.997967 4.621862 -1.416231 -0.625719 4.888895 -11.522396 3.523458 -2.658485 -16.142582 -9.608888 5.385146 55.025773 -0.915160 2.676140 -1.681320 -15.915390 -12.175480 4.173257 -0.102963 -3.098367 0.091327 11.164356 -8.707996 -0.446735 -3.922502 2.553321 0.442620 0.023770 0.081710 0.110720 10.216393 17.448351 10.776133 2.269419 5.594308 -0.839364 -9.195710 3.784921 0.113733 2.624622 -0.953394 -0.139770 0.205940 0.039430 -0.151400 
0.596670 17.153520 -1.497850 -7.407458 -11.200778 17.248254 -15.159221 12.732285 3.981389 -3.834348 -2.833735 -15.822360 -8.255482 2.363272 -6.347324 -0.297525 2.782551 3.722132 0.159700 -0.017250 0.116690 18.173774 -10.738437 3.264328 -7.389541 -1.358290 7.915989 6.962227 -5.300331 1.985874 -0.757953 -4.789897 2.903324 -0.021180 0.114880 0.098450 -3.267540 -1.497589 -8.690583 9.506939 4.693126 -1.390889 -0.460290 4.888637 -11.306218 3.528985 -2.568049 -16.123256 -9.313391 5.254087 54.854370 -1.014730 2.729950 -1.698840 -15.781206 -12.213240 4.189838 -0.051509 -3.167758 0.081908 11.293733 -8.644782 -0.452725 -3.929370 2.552714 0.438580 0.027250 0.079900 0.108770 10.107667 17.418511 10.779704 2.258491 5.616198 -0.817408 -9.195340 3.832713 0.106203 2.622922 -0.956322 -0.139360 0.204590 0.039660 -0.152000 
0.598000 17.150510 -1.506690 -7.261886 -11.301343 17.138810 -15.169600 12.699356 3.974765 -4.029718 -2.845152 -15.710592 -8.160966 2.344140 -6.410160 -0.301759 2.778556 3.723914 0.158290 -0.017760 0.114710 18.168792 -10.742794 3.272372 -7.517126 -1.328422 8.038708 7.007000 -5.298575 1.766740 -0.762532 -4.817104 2.894014 -0.019120 0.118050 0.099930 -3.242809 -1.430079 -8.686500 9.092595 4.749426 -1.378674 -0.351576 4.887736 -11.089963 3.524824 -2.500252 -16.112332 -9.068063 5.177217 54.742689 -1.054530 2.777770 -1.722870 -15.623238 -12.238222 4.208305 -0.036380 -3.230927 0.079253 11.454750 -8.570777 -0.463610 -3.937462 2.550957 0.436570 0.031420 0.077430 0.108070 9.980406 17.396540 10.783318 2.324335 5.695819 -0.794038 -9.235006 3.859426 0.099218 2.618696 -0.958787 -0.140980 0.205320 0.042420 -0.152520 
